<svg class="diagram-root" style="background: #f5f6f6" xmlns="http://www.w3.org/2000/svg" xmlns:xlink="http://www.w3.org/1999/xlink"><style>.diagram-root { font-family: "Helvetica Neue", sans-serif; font-size: 12px; } .t { overflow: visible; } .t-bg { y: 40; fill: #fff;   } .th { fill: #005aa0;   } .tht { fill: #fff; font-size: 14px;  } .tf { fill: #323c46; overflow: visible; } .tf.pk { fill: #005aa0; font-weight: bold; } .tf.fk { font-weight: bold; } .ty { fill: #adb1b5; font-weight: normal; text-anchor: end; } .r { fill: transparent; stroke: #c3c3c3; stroke-width: 1; } .l { stroke: 1; } .i { fill: #c2c7ce; stroke: #c2c7ce; } .i.ix { fill: #afb3b6; stroke: #000; } .fa { fill: transparent; overflow: visible; } .fa .bg.hover { fill: #f7f7f7; } .c { cy: 12; r: 4; stroke: #d2d2dc; fill: #d2d2dc; } .hr { fill: transparent; stroke: #323c46; stroke-opacity: 0.035; stroke-width: 13; } .dc { stroke: #fa5a3c; fill: #fa5a3c; } .x { stroke: white; stroke-width: 1; } .hl .th { fill: #1b9bff; } .hl .tht {  } .fhl .bg { fill: #e7f4ff; } .fhls .bg {  } .r.hl { stroke: #1b9bff; } .dim { opacity: 0.25; }</style><g class="drawing-wrapper" transform="translate(-106, 56.428571428571594) scale(1,1)"><g class="rs"><path d="M 725.2142857142869 122.5714285714288 m -1, 0 a 1,1 0 1,0 2,0 a 1,1 0 1,0 -2,0 M 725.2142857142869 122.5714285714288 m -0.5, 0 a 0.5,0.5 0 1,0 1,0 a 0.5,0.5 0 1,0 -1,0  M725.2142857142869 122.5714285714288 L725.2142857142869 122.5714285714288 713.2142857142869 122.5714285714288 M 725.2142857142869 128.57142857142878 m -1, 0 a 1,1 0 1,0 2,0 a 1,1 0 1,0 -2,0 M 725.2142857142869 128.57142857142878 m -0.5, 0 a 0.5,0.5 0 1,0 1,0 a 0.5,0.5 0 1,0 -1,0  M725.2142857142869 128.57142857142878 L725.2142857142869 128.57142857142878 718.2142857142869 122.5714285714288 725.2142857142869 116.5714285714288 M 725.2142857142869 116.5714285714288 m -1, 0 a 1,1 0 1,0 2,0 a 1,1 0 1,0 -2,0 M 725.2142857142869 116.5714285714288 m -0.5, 0 a 0.5,0.5 0 1,0 1,0 a 0.5,0.5 0 1,0 -1,0  M713.2142857142869 122.5714285714288 Q 608.92 122.5714285714288, 504.63 113.86 T 296.04 105.14285714285714 M 284.04 105.14285714285714 m -1, 0 a 1,1 0 1,0 2,0 a 1,1 0 1,0 -2,0 M 284.04 105.14285714285714 m -0.5, 0 a 0.5,0.5 0 1,0 1,0 a 0.5,0.5 0 1,0 -1,0  M284.04 105.14285714285714 L284.04 105.14285714285714 296.04 105.14285714285714 M290.04 111.14285714285714 L290.04 111.14285714285714 290.04 99.14285714285714" id="h807962457" class="r"></path><path d="M 725.2142857142869 147.57142857142878 m -1, 0 a 1,1 0 1,0 2,0 a 1,1 0 1,0 -2,0 M 725.2142857142869 147.57142857142878 m -0.5, 0 a 0.5,0.5 0 1,0 1,0 a 0.5,0.5 0 1,0 -1,0  M725.2142857142869 147.57142857142878 L725.2142857142869 147.57142857142878 713.2142857142869 147.57142857142878 M 725.2142857142869 153.57142857142878 m -1, 0 a 1,1 0 1,0 2,0 a 1,1 0 1,0 -2,0 M 725.2142857142869 153.57142857142878 m -0.5, 0 a 0.5,0.5 0 1,0 1,0 a 0.5,0.5 0 1,0 -1,0  M725.2142857142869 153.57142857142878 L725.2142857142869 153.57142857142878 718.2142857142869 147.57142857142878 725.2142857142869 141.57142857142878 M 725.2142857142869 141.57142857142878 m -1, 0 a 1,1 0 1,0 2,0 a 1,1 0 1,0 -2,0 M 725.2142857142869 141.57142857142878 m -0.5, 0 a 0.5,0.5 0 1,0 1,0 a 0.5,0.5 0 1,0 -1,0  M713.2142857142869 147.57142857142878 Q 601.12 147.57142857142878, 489.03 249.43 T 264.85 351.2857142857144 M 252.85 351.2857142857144 m -1, 0 a 1,1 0 1,0 2,0 a 1,1 0 1,0 -2,0 M 252.85 351.2857142857144 m -0.5, 0 a 0.5,0.5 0 1,0 1,0 a 0.5,0.5 0 1,0 -1,0  M252.85 351.2857142857144 L252.85 351.2857142857144 264.85 351.2857142857144 M258.85 357.2857142857144 L258.85 357.2857142857144 258.85 345.2857142857144" id="h3347508858" class="r"></path><path d="M 568.08 55.571428571428406 m -1, 0 a 1,1 0 1,0 2,0 a 1,1 0 1,0 -2,0 M 568.08 55.571428571428406 m -0.5, 0 a 0.5,0.5 0 1,0 1,0 a 0.5,0.5 0 1,0 -1,0  M568.08 55.571428571428406 L568.08 55.571428571428406 580.08 55.571428571428406 M 568.08 61.571428571428406 m -1, 0 a 1,1 0 1,0 2,0 a 1,1 0 1,0 -2,0 M 568.08 61.571428571428406 m -0.5, 0 a 0.5,0.5 0 1,0 1,0 a 0.5,0.5 0 1,0 -1,0  M568.08 61.571428571428406 L568.08 61.571428571428406 575.08 55.571428571428406 568.08 49.571428571428406 M 568.08 49.571428571428406 m -1, 0 a 1,1 0 1,0 2,0 a 1,1 0 1,0 -2,0 M 568.08 49.571428571428406 m -0.5, 0 a 0.5,0.5 0 1,0 1,0 a 0.5,0.5 0 1,0 -1,0  M580.08 55.571428571428406 Q 613.37 55.571428571428406, 646.65 51.57 T 713.2142857142869 47.57142857142879 M 725.2142857142869 47.57142857142879 m -1, 0 a 1,1 0 1,0 2,0 a 1,1 0 1,0 -2,0 M 725.2142857142869 47.57142857142879 m -0.5, 0 a 0.5,0.5 0 1,0 1,0 a 0.5,0.5 0 1,0 -1,0  M725.2142857142869 47.57142857142879 L725.2142857142869 47.57142857142879 713.2142857142869 47.57142857142879 M719.2142857142869 53.57142857142879 L719.2142857142869 53.57142857142879 719.2142857142869 41.57142857142879" id="h4129279427" class="r"></path><path d="M 456.7142857142858 80.57142857142841 m -1, 0 a 1,1 0 1,0 2,0 a 1,1 0 1,0 -2,0 M 456.7142857142858 80.57142857142841 m -0.5, 0 a 0.5,0.5 0 1,0 1,0 a 0.5,0.5 0 1,0 -1,0  M456.7142857142858 80.57142857142841 L456.7142857142858 80.57142857142841 444.7142857142858 80.57142857142841 M 456.7142857142858 86.57142857142841 m -1, 0 a 1,1 0 1,0 2,0 a 1,1 0 1,0 -2,0 M 456.7142857142858 86.57142857142841 m -0.5, 0 a 0.5,0.5 0 1,0 1,0 a 0.5,0.5 0 1,0 -1,0  M456.7142857142858 86.57142857142841 L456.7142857142858 86.57142857142841 449.7142857142858 80.57142857142841 456.7142857142858 74.57142857142841 M 456.7142857142858 74.57142857142841 m -1, 0 a 1,1 0 1,0 2,0 a 1,1 0 1,0 -2,0 M 456.7142857142858 74.57142857142841 m -0.5, 0 a 0.5,0.5 0 1,0 1,0 a 0.5,0.5 0 1,0 -1,0  M444.7142857142858 80.57142857142841 Q 407.55 80.57142857142841, 370.38 92.86 T 296.04 105.14285714285714 M 284.04 105.14285714285714 m -1, 0 a 1,1 0 1,0 2,0 a 1,1 0 1,0 -2,0 M 284.04 105.14285714285714 m -0.5, 0 a 0.5,0.5 0 1,0 1,0 a 0.5,0.5 0 1,0 -1,0  M284.04 105.14285714285714 L284.04 105.14285714285714 296.04 105.14285714285714 M290.04 111.14285714285714 L290.04 111.14285714285714 290.04 99.14285714285714" id="h1215541428" class="r"></path><path d="M 720.7142857142854 377.85714285714187 m -1, 0 a 1,1 0 1,0 2,0 a 1,1 0 1,0 -2,0 M 720.7142857142854 377.85714285714187 m -0.5, 0 a 0.5,0.5 0 1,0 1,0 a 0.5,0.5 0 1,0 -1,0  M720.7142857142854 377.85714285714187 L720.7142857142854 377.85714285714187 708.7142857142854 377.85714285714187 M 720.7142857142854 383.85714285714187 m -1, 0 a 1,1 0 1,0 2,0 a 1,1 0 1,0 -2,0 M 720.7142857142854 383.85714285714187 m -0.5, 0 a 0.5,0.5 0 1,0 1,0 a 0.5,0.5 0 1,0 -1,0  M720.7142857142854 383.85714285714187 L720.7142857142854 383.85714285714187 713.7142857142854 377.85714285714187 720.7142857142854 371.85714285714187 M 720.7142857142854 371.85714285714187 m -1, 0 a 1,1 0 1,0 2,0 a 1,1 0 1,0 -2,0 M 720.7142857142854 371.85714285714187 m -0.5, 0 a 0.5,0.5 0 1,0 1,0 a 0.5,0.5 0 1,0 -1,0  M708.7142857142854 377.85714285714187 C 658.7142857142854 377.85714285714187, 656.0142857142846 47.57142857142879, 713.2142857142869 47.57142857142879 M 725.2142857142869 47.57142857142879 m -1, 0 a 1,1 0 1,0 2,0 a 1,1 0 1,0 -2,0 M 725.2142857142869 47.57142857142879 m -0.5, 0 a 0.5,0.5 0 1,0 1,0 a 0.5,0.5 0 1,0 -1,0  M725.2142857142869 47.57142857142879 L725.2142857142869 47.57142857142879 713.2142857142869 47.57142857142879 M719.2142857142869 53.57142857142879 L719.2142857142869 53.57142857142879 719.2142857142869 41.57142857142879" id="h80935518" class="r"></path><path d="M 720.7142857142854 427.85714285714187 m -1, 0 a 1,1 0 1,0 2,0 a 1,1 0 1,0 -2,0 M 720.7142857142854 427.85714285714187 m -0.5, 0 a 0.5,0.5 0 1,0 1,0 a 0.5,0.5 0 1,0 -1,0  M720.7142857142854 427.85714285714187 L720.7142857142854 427.85714285714187 708.7142857142854 427.85714285714187 M 720.7142857142854 433.85714285714187 m -1, 0 a 1,1 0 1,0 2,0 a 1,1 0 1,0 -2,0 M 720.7142857142854 433.85714285714187 m -0.5, 0 a 0.5,0.5 0 1,0 1,0 a 0.5,0.5 0 1,0 -1,0  M720.7142857142854 433.85714285714187 L720.7142857142854 433.85714285714187 713.7142857142854 427.85714285714187 720.7142857142854 421.85714285714187 M 720.7142857142854 421.85714285714187 m -1, 0 a 1,1 0 1,0 2,0 a 1,1 0 1,0 -2,0 M 720.7142857142854 421.85714285714187 m -0.5, 0 a 0.5,0.5 0 1,0 1,0 a 0.5,0.5 0 1,0 -1,0  M708.7142857142854 427.85714285714187 Q 605.55 427.85714285714187, 502.38 266.5 T 296.04 105.14285714285714 M 284.04 105.14285714285714 m -1, 0 a 1,1 0 1,0 2,0 a 1,1 0 1,0 -2,0 M 284.04 105.14285714285714 m -0.5, 0 a 0.5,0.5 0 1,0 1,0 a 0.5,0.5 0 1,0 -1,0  M284.04 105.14285714285714 L284.04 105.14285714285714 296.04 105.14285714285714 M290.04 111.14285714285714 L290.04 111.14285714285714 290.04 99.14285714285714" id="h2557162099" class="r"></path><path d="M 523.69 419.0000000000001 m -1, 0 a 1,1 0 1,0 2,0 a 1,1 0 1,0 -2,0 M 523.69 419.0000000000001 m -0.5, 0 a 0.5,0.5 0 1,0 1,0 a 0.5,0.5 0 1,0 -1,0  M523.69 419.0000000000001 L523.69 419.0000000000001 535.69 419.0000000000001 M 523.69 425.0000000000001 m -1, 0 a 1,1 0 1,0 2,0 a 1,1 0 1,0 -2,0 M 523.69 425.0000000000001 m -0.5, 0 a 0.5,0.5 0 1,0 1,0 a 0.5,0.5 0 1,0 -1,0  M523.69 425.0000000000001 L523.69 425.0000000000001 530.69 419.0000000000001 523.69 413.0000000000001 M 523.69 413.0000000000001 m -1, 0 a 1,1 0 1,0 2,0 a 1,1 0 1,0 -2,0 M 523.69 413.0000000000001 m -0.5, 0 a 0.5,0.5 0 1,0 1,0 a 0.5,0.5 0 1,0 -1,0  M535.69 419.0000000000001 Q 580.07 419.0000000000001, 624.45 233.29 T 713.2142857142869 47.57142857142879 M 725.2142857142869 47.57142857142879 m -1, 0 a 1,1 0 1,0 2,0 a 1,1 0 1,0 -2,0 M 725.2142857142869 47.57142857142879 m -0.5, 0 a 0.5,0.5 0 1,0 1,0 a 0.5,0.5 0 1,0 -1,0  M725.2142857142869 47.57142857142879 L725.2142857142869 47.57142857142879 713.2142857142869 47.57142857142879 M719.2142857142869 53.57142857142879 L719.2142857142869 53.57142857142879 719.2142857142869 41.57142857142879" id="h703486178" class="r"></path></g><g class="hrs"></g><g class="ts"><svg width="120.71" height="175" x="132.14285714285705" y="294.2857142857144" id="h1532762019" class="t"><rect height="40" width="120.71" class="th"></rect><text x="13" y="25" class="tht">Room</text><rect height="135" width="120.71" class="t-bg"></rect><text x="13" y="61" class="tf pk">Id<tspan x="107.71" class="ty">int</tspan></text><path d="M7,14A2,2 0 0,1 5,12A2,2 0 0,1 7,10A2,2 0 0,1 9,12A2,2 0 0,1 7,14M12.65,10C11.83,7.67 9.61,6 7, 6A6, 6 0 0, 0 1, 12A6, 6 0 0, 0 7, 18C9.61, 18 11.83, 16.33 12.65, 14H17V18H21V14H23V10H12.65Z" class="i pk" transform="translate(75.036171875, 48) scale(0.65)"></path><text x="13" y="86" class="tf">Name<tspan x="107.71" class="ty">string</tspan></text><text x="13" y="111" class="tf">Capacity<tspan x="107.71" class="ty">int</tspan></text><text x="13" y="136" class="tf">Location<tspan x="107.71" class="ty">string</tspan></text><text x="13" y="161" class="tf">Features<tspan x="107.71" class="ty">text</tspan></text></svg><svg width="126.69" height="150" x="397.0000000000002" y="337.0000000000001" id="h4264466041" class="t"><rect height="40" width="126.69" class="th"></rect><text x="13" y="25" class="tht">Attachment</text><rect height="110" width="126.69" class="t-bg"></rect><text x="13" y="61" class="tf pk">Id<tspan x="113.69" class="ty">int</tspan></text><path d="M7,14A2,2 0 0,1 5,12A2,2 0 0,1 7,10A2,2 0 0,1 9,12A2,2 0 0,1 7,14M12.65,10C11.83,7.67 9.61,6 7, 6A6, 6 0 0, 0 1, 12A6, 6 0 0, 0 7, 18C9.61, 18 11.83, 16.33 12.65, 14H17V18H21V14H23V10H12.65Z" class="i pk" transform="translate(81.016171875, 48) scale(0.65)"></path><text x="13" y="86" class="tf fk">MeetingId<tspan x="113.69" class="ty">int</tspan></text><text x="13" y="111" class="tf">FileName<tspan x="113.69" class="ty">string</tspan></text><text x="13" y="136" class="tf">FilePath<tspan x="113.69" class="ty">string</tspan></text></svg><svg width="111.37" height="125" x="456.7142857142858" y="-26.428571428571594" id="h3390518475" class="t"><rect height="40" width="111.37" class="th"></rect><text x="13" y="25" class="tht">Participant</text><rect height="85" width="111.37" class="t-bg"></rect><text x="13" y="61" class="tf pk">Id<tspan x="98.37" class="ty">int</tspan></text><path d="M7,14A2,2 0 0,1 5,12A2,2 0 0,1 7,10A2,2 0 0,1 9,12A2,2 0 0,1 7,14M12.65,10C11.83,7.67 9.61,6 7, 6A6, 6 0 0, 0 1, 12A6, 6 0 0, 0 7, 18C9.61, 18 11.83, 16.33 12.65, 14H17V18H21V14H23V10H12.65Z" class="i pk" transform="translate(65.696171875, 48) scale(0.65)"></path><text x="13" y="86" class="tf fk">MeetingId<tspan x="98.37" class="ty">int</tspan></text><text x="13" y="111" class="tf fk">UserId<tspan x="98.37" class="ty">int</tspan></text></svg><svg width="146.05" height="275" x="725.2142857142869" y="-9.428571428571209" id="h2446000027" class="t"><rect height="40" width="146.05" class="th"></rect><text x="13" y="25" class="tht">Meeting</text><rect height="235" width="146.05" class="t-bg"></rect><text x="13" y="61" class="tf pk">Id<tspan x="133.05" class="ty">int</tspan></text><path d="M7,14A2,2 0 0,1 5,12A2,2 0 0,1 7,10A2,2 0 0,1 9,12A2,2 0 0,1 7,14M12.65,10C11.83,7.67 9.61,6 7, 6A6, 6 0 0, 0 1, 12A6, 6 0 0, 0 7, 18C9.61, 18 11.83, 16.33 12.65, 14H17V18H21V14H23V10H12.65Z" class="i pk" transform="translate(100.37617187500001, 48) scale(0.65)"></path><text x="13" y="86" class="tf">Title<tspan x="133.05" class="ty">string</tspan></text><text x="13" y="111" class="tf">Agenda<tspan x="133.05" class="ty">text</tspan></text><text x="13" y="136" class="tf fk">OrganizerId<tspan x="133.05" class="ty">int</tspan></text><text x="13" y="161" class="tf fk">RoomId<tspan x="133.05" class="ty">int</tspan></text><text x="13" y="186" class="tf">StartTime<tspan x="133.05" class="ty">datetime</tspan></text><text x="13" y="211" class="tf">EndTime<tspan x="133.05" class="ty">datetime</tspan></text><text x="13" y="236" class="tf">Status<tspan x="133.05" class="ty">string</tspan></text><text x="13" y="261" class="tf">CreatedAt<tspan x="133.05" class="ty">datetime</tspan></text></svg><svg width="156.04" height="200" x="128" y="48.142857142857146" id="h1537667952" class="t"><rect height="40" width="156.04" class="th"></rect><text x="13" y="25" class="tht">User</text><rect height="160" width="156.04" class="t-bg"></rect><text x="13" y="61" class="tf pk">Id<tspan x="143.04" class="ty">int</tspan></text><path d="M7,14A2,2 0 0,1 5,12A2,2 0 0,1 7,10A2,2 0 0,1 9,12A2,2 0 0,1 7,14M12.65,10C11.83,7.67 9.61,6 7, 6A6, 6 0 0, 0 1, 12A6, 6 0 0, 0 7, 18C9.61, 18 11.83, 16.33 12.65, 14H17V18H21V14H23V10H12.65Z" class="i pk" transform="translate(110.36617187499999, 48) scale(0.65)"></path><text x="13" y="86" class="tf">Name<tspan x="143.04" class="ty">string</tspan></text><text x="13" y="111" class="tf">Email<tspan x="143.04" class="ty">string</tspan></text><path d="M22,18V22H18V19H15V16H12L9.74,13.74C9.19,13.91 8.61,14 8,14A6,6 0 0,1 2,8A6,6 0 0,1 8,2A6,6 0 0,1 14,8C14,8.61 13.91, 9.19 13.74, 9.74L22, 18M7, 5A2, 2 0 0, 0 5, 7A2, 2 0 0, 0 7, 9A2, 2 0 0, 0 9, 7A2, 2 0 0, 0 7, 5Z" class="i uq" transform="translate(97.69624999999999, 100.5) scale(0.5)"></path><text x="13" y="136" class="tf">PasswordHash<tspan x="143.04" class="ty">string</tspan></text><text x="13" y="161" class="tf">Role<tspan x="143.04" class="ty">string</tspan></text><text x="13" y="186" class="tf">CreatedAt<tspan x="143.04" class="ty">datetime</tspan></text></svg><svg width="164.06" height="250" x="720.7142857142854" y="295.85714285714187" id="h4231767641" class="t"><rect height="40" width="164.06" class="th"></rect><text x="13" y="25" class="tht">MeetingMinutes</text><rect height="210" width="164.06" class="t-bg"></rect><text x="13" y="61" class="tf pk">Id<tspan x="151.06" class="ty">int</tspan></text><path d="M7,14A2,2 0 0,1 5,12A2,2 0 0,1 7,10A2,2 0 0,1 9,12A2,2 0 0,1 7,14M12.65,10C11.83,7.67 9.61,6 7, 6A6, 6 0 0, 0 1, 12A6, 6 0 0, 0 7, 18C9.61, 18 11.83, 16.33 12.65, 14H17V18H21V14H23V10H12.65Z" class="i pk" transform="translate(118.386171875, 48) scale(0.65)"></path><text x="13" y="86" class="tf fk">MeetingId<tspan x="151.06" class="ty">int</tspan></text><text x="13" y="111" class="tf">Summary<tspan x="151.06" class="ty">text</tspan></text><text x="13" y="136" class="tf fk">AssignedTo<tspan x="151.06" class="ty">int</tspan></text><text x="13" y="161" class="tf">TaskDescription<tspan x="151.06" class="ty">text</tspan></text><text x="13" y="186" class="tf">TaskStatus<tspan x="151.06" class="ty">string</tspan></text><text x="13" y="211" class="tf">TaskDueDate<tspan x="151.06" class="ty">datetime</tspan></text><text x="13" y="236" class="tf">CreatedAt<tspan x="151.06" class="ty">datetime</tspan></text></svg></g></g><text class="qdbd-link" x="10" y="20">www.quickdatabasediagrams.com</text></svg>